<mxfile host="app.diagrams.net" agent="Mozilla/5.0 (Windows NT 10.0; Win64; x64) AppleWebKit/537.36 (KHTML, like Gecko) Chrome/131.0.0.0 Safari/537.36" version="25.0.3">
  <diagram name="Page-1" id="c9Ai-ubDrSZvEC2KYgUM">
    <mxGraphModel dx="2806" dy="947" grid="1" gridSize="10" guides="1" tooltips="1" connect="1" arrows="1" fold="1" page="1" pageScale="1" pageWidth="850" pageHeight="1100" math="0" shadow="0">
      <root>
        <mxCell id="0" />
        <mxCell id="1" parent="0" />
        <mxCell id="FdN9x6t_w3lRcBCilJA2-83" style="edgeStyle=orthogonalEdgeStyle;rounded=0;orthogonalLoop=1;jettySize=auto;html=1;exitX=1;exitY=0.75;exitDx=0;exitDy=0;entryX=0;entryY=0.5;entryDx=0;entryDy=0;" parent="1" source="4" target="FdN9x6t_w3lRcBCilJA2-15" edge="1">
          <mxGeometry relative="1" as="geometry" />
        </mxCell>
        <mxCell id="4" value="Client-side" style="whiteSpace=wrap;strokeWidth=2;" parent="1" vertex="1">
          <mxGeometry y="300" width="467" height="119" as="geometry" />
        </mxCell>
        <mxCell id="5" value="User Interface" style="whiteSpace=wrap;strokeWidth=2;" parent="1" vertex="1">
          <mxGeometry x="33" y="341" width="162" height="49" as="geometry" />
        </mxCell>
        <mxCell id="6" value="Client-side Logic" style="whiteSpace=wrap;strokeWidth=2;" parent="1" vertex="1">
          <mxGeometry x="270" y="341" width="179" height="49" as="geometry" />
        </mxCell>
        <mxCell id="11" value="" style="curved=1;startArrow=none;endArrow=block;exitX=1;exitY=0.5;entryX=0;entryY=0.5;" parent="1" source="5" target="6" edge="1">
          <mxGeometry relative="1" as="geometry">
            <Array as="points" />
          </mxGeometry>
        </mxCell>
        <mxCell id="FdN9x6t_w3lRcBCilJA2-15" value="" style="rounded=0;whiteSpace=wrap;html=1;" parent="1" vertex="1">
          <mxGeometry x="660" y="179.5" width="367.5" height="870.5" as="geometry" />
        </mxCell>
        <mxCell id="FdN9x6t_w3lRcBCilJA2-16" value="&lt;b&gt;&lt;u&gt;&lt;font style=&quot;font-size: 15px;&quot;&gt;CLIENT SIDE&lt;/font&gt;&lt;/u&gt;&lt;/b&gt;" style="text;html=1;align=center;verticalAlign=middle;whiteSpace=wrap;rounded=0;" parent="1" vertex="1">
          <mxGeometry x="118.5" y="301" width="230" height="40" as="geometry" />
        </mxCell>
        <mxCell id="FdN9x6t_w3lRcBCilJA2-17" value="&lt;b&gt;&lt;u&gt;&lt;font style=&quot;font-size: 15px;&quot;&gt;API GATEWAY&lt;/font&gt;&lt;/u&gt;&lt;/b&gt;" style="text;html=1;align=center;verticalAlign=middle;whiteSpace=wrap;rounded=0;" parent="1" vertex="1">
          <mxGeometry x="735" y="190" width="220" height="30" as="geometry" />
        </mxCell>
        <mxCell id="FdN9x6t_w3lRcBCilJA2-21" value="" style="whiteSpace=wrap;html=1;aspect=fixed;" parent="1" vertex="1">
          <mxGeometry x="800" y="250" width="90" height="90" as="geometry" />
        </mxCell>
        <mxCell id="FdN9x6t_w3lRcBCilJA2-23" value="" style="whiteSpace=wrap;html=1;aspect=fixed;" parent="1" vertex="1">
          <mxGeometry x="800" y="380" width="90" height="90" as="geometry" />
        </mxCell>
        <mxCell id="FdN9x6t_w3lRcBCilJA2-105" style="edgeStyle=orthogonalEdgeStyle;rounded=0;orthogonalLoop=1;jettySize=auto;html=1;exitX=1;exitY=0;exitDx=0;exitDy=0;entryX=0;entryY=0.25;entryDx=0;entryDy=0;" parent="1" source="FdN9x6t_w3lRcBCilJA2-25" target="FdN9x6t_w3lRcBCilJA2-54" edge="1">
          <mxGeometry relative="1" as="geometry">
            <Array as="points">
              <mxPoint x="893" y="490" />
              <mxPoint x="1130" y="490" />
              <mxPoint x="1130" y="858" />
            </Array>
          </mxGeometry>
        </mxCell>
        <mxCell id="FdN9x6t_w3lRcBCilJA2-25" value="" style="whiteSpace=wrap;html=1;aspect=fixed;" parent="1" vertex="1">
          <mxGeometry x="800" y="510" width="92.5" height="92.5" as="geometry" />
        </mxCell>
        <mxCell id="FdN9x6t_w3lRcBCilJA2-26" value="" style="whiteSpace=wrap;html=1;aspect=fixed;" parent="1" vertex="1">
          <mxGeometry x="800" y="887.5" width="97.5" height="97.5" as="geometry" />
        </mxCell>
        <mxCell id="FdN9x6t_w3lRcBCilJA2-36" value="" style="edgeStyle=orthogonalEdgeStyle;rounded=0;orthogonalLoop=1;jettySize=auto;html=1;" parent="1" source="FdN9x6t_w3lRcBCilJA2-27" target="FdN9x6t_w3lRcBCilJA2-35" edge="1">
          <mxGeometry relative="1" as="geometry" />
        </mxCell>
        <mxCell id="FdN9x6t_w3lRcBCilJA2-27" value="Authorisations&lt;div&gt;Service&lt;/div&gt;" style="text;html=1;align=center;verticalAlign=middle;whiteSpace=wrap;rounded=0;" parent="1" vertex="1">
          <mxGeometry x="815" y="280" width="60" height="30" as="geometry" />
        </mxCell>
        <mxCell id="FdN9x6t_w3lRcBCilJA2-28" value="Text-to-Speech" style="text;html=1;align=center;verticalAlign=middle;whiteSpace=wrap;rounded=0;" parent="1" vertex="1">
          <mxGeometry x="815" y="400" width="60" height="30" as="geometry" />
        </mxCell>
        <mxCell id="FdN9x6t_w3lRcBCilJA2-61" style="edgeStyle=orthogonalEdgeStyle;rounded=0;orthogonalLoop=1;jettySize=auto;html=1;exitX=1;exitY=0.25;exitDx=0;exitDy=0;entryX=0;entryY=0.5;entryDx=0;entryDy=0;" parent="1" source="FdN9x6t_w3lRcBCilJA2-30" target="FdN9x6t_w3lRcBCilJA2-59" edge="1">
          <mxGeometry relative="1" as="geometry" />
        </mxCell>
        <mxCell id="FdN9x6t_w3lRcBCilJA2-30" value="Logging and Monitoring Service" style="text;html=1;align=center;verticalAlign=middle;whiteSpace=wrap;rounded=0;" parent="1" vertex="1">
          <mxGeometry x="815" y="921.25" width="60" height="30" as="geometry" />
        </mxCell>
        <mxCell id="FdN9x6t_w3lRcBCilJA2-32" style="edgeStyle=orthogonalEdgeStyle;rounded=0;orthogonalLoop=1;jettySize=auto;html=1;exitX=1;exitY=0.5;exitDx=0;exitDy=0;entryX=0.004;entryY=0.294;entryDx=0;entryDy=0;entryPerimeter=0;curved=1;" parent="1" source="4" target="FdN9x6t_w3lRcBCilJA2-15" edge="1">
          <mxGeometry relative="1" as="geometry" />
        </mxCell>
        <mxCell id="FdN9x6t_w3lRcBCilJA2-94" style="edgeStyle=orthogonalEdgeStyle;rounded=0;orthogonalLoop=1;jettySize=auto;html=1;exitX=0;exitY=0.75;exitDx=0;exitDy=0;entryX=1;entryY=0.75;entryDx=0;entryDy=0;" parent="1" source="FdN9x6t_w3lRcBCilJA2-33" target="FdN9x6t_w3lRcBCilJA2-21" edge="1">
          <mxGeometry relative="1" as="geometry">
            <Array as="points">
              <mxPoint x="1230" y="223" />
              <mxPoint x="1230" y="318" />
            </Array>
          </mxGeometry>
        </mxCell>
        <mxCell id="FdN9x6t_w3lRcBCilJA2-33" value="" style="rounded=0;whiteSpace=wrap;html=1;" parent="1" vertex="1">
          <mxGeometry x="1320" y="20" width="210" height="270" as="geometry" />
        </mxCell>
        <mxCell id="FdN9x6t_w3lRcBCilJA2-34" value="&lt;h1 style=&quot;margin-top: 0px;&quot;&gt;Authorisation Backend&lt;/h1&gt;&lt;div&gt;Validates client credentials (e.g., API keys, tokens) ,login&amp;nbsp; and signup and enforces permissions , ,&amp;nbsp;&lt;/div&gt;" style="text;html=1;whiteSpace=wrap;overflow=hidden;rounded=0;" parent="1" vertex="1">
          <mxGeometry x="1335" y="95" width="180" height="120" as="geometry" />
        </mxCell>
        <mxCell id="FdN9x6t_w3lRcBCilJA2-38" style="edgeStyle=orthogonalEdgeStyle;rounded=0;orthogonalLoop=1;jettySize=auto;html=1;exitX=0.5;exitY=1;exitDx=0;exitDy=0;entryX=0;entryY=0.5;entryDx=0;entryDy=0;" parent="1" source="FdN9x6t_w3lRcBCilJA2-35" target="FdN9x6t_w3lRcBCilJA2-33" edge="1">
          <mxGeometry relative="1" as="geometry" />
        </mxCell>
        <mxCell id="FdN9x6t_w3lRcBCilJA2-35" value="Authorisations&lt;div&gt;Service&lt;/div&gt;" style="text;html=1;align=center;verticalAlign=middle;whiteSpace=wrap;rounded=0;" parent="1" vertex="1">
          <mxGeometry x="1110" y="160" width="60" height="30" as="geometry" />
        </mxCell>
        <mxCell id="FdN9x6t_w3lRcBCilJA2-68" style="edgeStyle=orthogonalEdgeStyle;rounded=0;orthogonalLoop=1;jettySize=auto;html=1;exitX=1;exitY=0.25;exitDx=0;exitDy=0;entryX=0;entryY=0.25;entryDx=0;entryDy=0;" parent="1" source="FdN9x6t_w3lRcBCilJA2-39" target="FdN9x6t_w3lRcBCilJA2-45" edge="1">
          <mxGeometry relative="1" as="geometry" />
        </mxCell>
        <mxCell id="HbiKc5k_0NSxNCVNac7z-22" style="edgeStyle=orthogonalEdgeStyle;rounded=0;orthogonalLoop=1;jettySize=auto;html=1;exitX=0;exitY=0.75;exitDx=0;exitDy=0;entryX=1;entryY=0.75;entryDx=0;entryDy=0;" edge="1" parent="1" source="FdN9x6t_w3lRcBCilJA2-39" target="HbiKc5k_0NSxNCVNac7z-12">
          <mxGeometry relative="1" as="geometry">
            <Array as="points">
              <mxPoint x="1180" y="630" />
              <mxPoint x="1180" y="710" />
            </Array>
          </mxGeometry>
        </mxCell>
        <mxCell id="HbiKc5k_0NSxNCVNac7z-26" style="edgeStyle=orthogonalEdgeStyle;rounded=0;orthogonalLoop=1;jettySize=auto;html=1;exitX=0;exitY=1;exitDx=0;exitDy=0;entryX=1;entryY=0.75;entryDx=0;entryDy=0;" edge="1" parent="1" source="FdN9x6t_w3lRcBCilJA2-39" target="HbiKc5k_0NSxNCVNac7z-16">
          <mxGeometry relative="1" as="geometry">
            <Array as="points">
              <mxPoint x="1260" y="730" />
              <mxPoint x="1260" y="835" />
            </Array>
          </mxGeometry>
        </mxCell>
        <mxCell id="FdN9x6t_w3lRcBCilJA2-39" value="" style="rounded=0;whiteSpace=wrap;html=1;" parent="1" vertex="1">
          <mxGeometry x="1320" y="330" width="220" height="400" as="geometry" />
        </mxCell>
        <mxCell id="FdN9x6t_w3lRcBCilJA2-40" value="&lt;div&gt;Voice1&lt;/div&gt;" style="whiteSpace=wrap;html=1;aspect=fixed;" parent="1" vertex="1">
          <mxGeometry x="1385" y="380" width="80" height="80" as="geometry" />
        </mxCell>
        <mxCell id="FdN9x6t_w3lRcBCilJA2-41" value="Voice 2" style="whiteSpace=wrap;html=1;aspect=fixed;" parent="1" vertex="1">
          <mxGeometry x="1385" y="480" width="80" height="80" as="geometry" />
        </mxCell>
        <mxCell id="FdN9x6t_w3lRcBCilJA2-43" value="&lt;b&gt;&lt;u&gt;11Eleven&lt;/u&gt;&lt;/b&gt;&lt;div&gt;&lt;b&gt;&lt;u&gt;Labs&lt;/u&gt;&lt;/b&gt;&lt;/div&gt;" style="text;html=1;align=center;verticalAlign=middle;whiteSpace=wrap;rounded=0;" parent="1" vertex="1">
          <mxGeometry x="1395" y="340" width="60" height="30" as="geometry" />
        </mxCell>
        <mxCell id="FdN9x6t_w3lRcBCilJA2-44" value="Voice N" style="whiteSpace=wrap;html=1;aspect=fixed;" parent="1" vertex="1">
          <mxGeometry x="1385" y="630" width="80" height="80" as="geometry" />
        </mxCell>
        <mxCell id="FdN9x6t_w3lRcBCilJA2-45" value="" style="whiteSpace=wrap;html=1;aspect=fixed;" parent="1" vertex="1">
          <mxGeometry x="1860" y="290" width="220" height="220" as="geometry" />
        </mxCell>
        <mxCell id="FdN9x6t_w3lRcBCilJA2-52" style="edgeStyle=orthogonalEdgeStyle;rounded=0;orthogonalLoop=1;jettySize=auto;html=1;exitX=0;exitY=0.5;exitDx=0;exitDy=0;" parent="1" source="FdN9x6t_w3lRcBCilJA2-46" target="FdN9x6t_w3lRcBCilJA2-39" edge="1">
          <mxGeometry relative="1" as="geometry" />
        </mxCell>
        <mxCell id="FdN9x6t_w3lRcBCilJA2-46" value="&lt;h1 style=&quot;margin-top: 0px;&quot;&gt;Text-to-speech Microservice&lt;/h1&gt;&lt;div&gt;Converts text input into natural, human-like speech&lt;/div&gt;" style="text;html=1;whiteSpace=wrap;overflow=hidden;rounded=0;" parent="1" vertex="1">
          <mxGeometry x="1880" y="341" width="180" height="120" as="geometry" />
        </mxCell>
        <mxCell id="FdN9x6t_w3lRcBCilJA2-58" style="edgeStyle=orthogonalEdgeStyle;rounded=0;orthogonalLoop=1;jettySize=auto;html=1;exitX=0;exitY=0.5;exitDx=0;exitDy=0;entryX=1;entryY=0.5;entryDx=0;entryDy=0;" parent="1" source="FdN9x6t_w3lRcBCilJA2-54" target="FdN9x6t_w3lRcBCilJA2-25" edge="1">
          <mxGeometry relative="1" as="geometry" />
        </mxCell>
        <mxCell id="FdN9x6t_w3lRcBCilJA2-54" value="" style="rounded=0;whiteSpace=wrap;html=1;" parent="1" vertex="1">
          <mxGeometry x="1320" y="790" width="240" height="270" as="geometry" />
        </mxCell>
        <mxCell id="FdN9x6t_w3lRcBCilJA2-55" value="&lt;h1 style=&quot;margin-top: 0px;&quot;&gt;Payment Microservice&lt;/h1&gt;&lt;div&gt;Handles payments, subscriptions, or usage-based billing for your APIs.&lt;/div&gt;" style="text;html=1;whiteSpace=wrap;overflow=hidden;rounded=0;" parent="1" vertex="1">
          <mxGeometry x="1350" y="865" width="180" height="120" as="geometry" />
        </mxCell>
        <mxCell id="FdN9x6t_w3lRcBCilJA2-59" value="" style="rounded=0;whiteSpace=wrap;html=1;" parent="1" vertex="1">
          <mxGeometry x="1320" y="1170" width="250" height="290" as="geometry" />
        </mxCell>
        <mxCell id="FdN9x6t_w3lRcBCilJA2-60" value="&lt;h1 style=&quot;margin-top: 0px;&quot;&gt;Logging and Monitoring Service&lt;/h1&gt;&lt;div&gt;Provides metrics for debugging, performance tuning, and compliance.&lt;/div&gt;&lt;div&gt;&lt;br&gt;&lt;/div&gt;&lt;div&gt;&lt;br&gt;&lt;/div&gt;" style="text;html=1;whiteSpace=wrap;overflow=hidden;rounded=0;" parent="1" vertex="1">
          <mxGeometry x="1350" y="1255" width="190" height="175" as="geometry" />
        </mxCell>
        <mxCell id="FdN9x6t_w3lRcBCilJA2-62" value="" style="shape=cylinder;whiteSpace=wrap;html=1;boundedLbl=1;backgroundOutline=1;" parent="1" vertex="1">
          <mxGeometry x="1880" y="20" width="180" height="210" as="geometry" />
        </mxCell>
        <mxCell id="FdN9x6t_w3lRcBCilJA2-63" style="edgeStyle=orthogonalEdgeStyle;rounded=0;orthogonalLoop=1;jettySize=auto;html=1;exitX=1;exitY=0.5;exitDx=0;exitDy=0;entryX=0;entryY=0.638;entryDx=0;entryDy=0;entryPerimeter=0;" parent="1" source="FdN9x6t_w3lRcBCilJA2-33" target="FdN9x6t_w3lRcBCilJA2-62" edge="1">
          <mxGeometry relative="1" as="geometry" />
        </mxCell>
        <mxCell id="FdN9x6t_w3lRcBCilJA2-64" style="edgeStyle=orthogonalEdgeStyle;rounded=0;orthogonalLoop=1;jettySize=auto;html=1;exitX=0;exitY=0.5;exitDx=0;exitDy=0;entryX=0.99;entryY=0.393;entryDx=0;entryDy=0;entryPerimeter=0;" parent="1" source="FdN9x6t_w3lRcBCilJA2-62" target="FdN9x6t_w3lRcBCilJA2-33" edge="1">
          <mxGeometry relative="1" as="geometry" />
        </mxCell>
        <mxCell id="FdN9x6t_w3lRcBCilJA2-65" value="Data" style="text;html=1;align=center;verticalAlign=middle;whiteSpace=wrap;rounded=0;" parent="1" vertex="1">
          <mxGeometry x="1670" y="80" width="60" height="30" as="geometry" />
        </mxCell>
        <mxCell id="FdN9x6t_w3lRcBCilJA2-66" value="Query" style="text;html=1;align=center;verticalAlign=middle;whiteSpace=wrap;rounded=0;" parent="1" vertex="1">
          <mxGeometry x="1670" y="160" width="60" height="30" as="geometry" />
        </mxCell>
        <mxCell id="FdN9x6t_w3lRcBCilJA2-67" value="" style="shape=cylinder;whiteSpace=wrap;html=1;boundedLbl=1;backgroundOutline=1;" parent="1" vertex="1">
          <mxGeometry x="1880" y="570" width="170" height="220" as="geometry" />
        </mxCell>
        <mxCell id="FdN9x6t_w3lRcBCilJA2-69" value="Message" style="text;html=1;align=center;verticalAlign=middle;whiteSpace=wrap;rounded=0;" parent="1" vertex="1">
          <mxGeometry x="1700" y="306" width="60" height="30" as="geometry" />
        </mxCell>
        <mxCell id="FdN9x6t_w3lRcBCilJA2-72" style="edgeStyle=orthogonalEdgeStyle;rounded=0;orthogonalLoop=1;jettySize=auto;html=1;exitX=1;exitY=0;exitDx=0;exitDy=0;entryX=0;entryY=0.3;entryDx=0;entryDy=0;" parent="1" target="FdN9x6t_w3lRcBCilJA2-67" edge="1">
          <mxGeometry relative="1" as="geometry">
            <mxPoint x="1539.9999999999995" y="630" as="sourcePoint" />
          </mxGeometry>
        </mxCell>
        <mxCell id="FdN9x6t_w3lRcBCilJA2-71" value="Response" style="text;html=1;align=center;verticalAlign=middle;whiteSpace=wrap;rounded=0;" parent="1" vertex="1">
          <mxGeometry x="1710" y="410" width="60" height="30" as="geometry" />
        </mxCell>
        <mxCell id="FdN9x6t_w3lRcBCilJA2-74" value="Stores Message and Response" style="text;html=1;align=center;verticalAlign=middle;whiteSpace=wrap;rounded=0;" parent="1" vertex="1">
          <mxGeometry x="1590" y="590" width="280" height="30" as="geometry" />
        </mxCell>
        <mxCell id="FdN9x6t_w3lRcBCilJA2-75" style="edgeStyle=orthogonalEdgeStyle;rounded=0;orthogonalLoop=1;jettySize=auto;html=1;exitX=0;exitY=0.7;exitDx=0;exitDy=0;entryX=1.003;entryY=0.891;entryDx=0;entryDy=0;entryPerimeter=0;" parent="1" source="FdN9x6t_w3lRcBCilJA2-67" target="FdN9x6t_w3lRcBCilJA2-39" edge="1">
          <mxGeometry relative="1" as="geometry" />
        </mxCell>
        <mxCell id="FdN9x6t_w3lRcBCilJA2-76" value="Retrieve Conversations" style="text;html=1;align=center;verticalAlign=middle;whiteSpace=wrap;rounded=0;" parent="1" vertex="1">
          <mxGeometry x="1640" y="655" width="150" height="30" as="geometry" />
        </mxCell>
        <mxCell id="FdN9x6t_w3lRcBCilJA2-77" value="&lt;font style=&quot;font-size: 17px;&quot;&gt;Users&lt;/font&gt;&lt;div&gt;&lt;font style=&quot;font-size: 17px;&quot;&gt;Database&lt;/font&gt;&lt;/div&gt;" style="text;html=1;align=center;verticalAlign=middle;whiteSpace=wrap;rounded=0;" parent="1" vertex="1">
          <mxGeometry x="1940" y="110" width="60" height="30" as="geometry" />
        </mxCell>
        <mxCell id="FdN9x6t_w3lRcBCilJA2-78" value="&lt;span style=&quot;font-size: 16px;&quot;&gt;Message&lt;/span&gt;&lt;div&gt;&lt;span style=&quot;font-size: 16px;&quot;&gt;Database&amp;nbsp;&lt;/span&gt;&lt;/div&gt;" style="text;html=1;align=center;verticalAlign=middle;whiteSpace=wrap;rounded=0;" parent="1" vertex="1">
          <mxGeometry x="1940" y="671.25" width="60" height="30" as="geometry" />
        </mxCell>
        <mxCell id="FdN9x6t_w3lRcBCilJA2-79" value="" style="shape=cylinder3;whiteSpace=wrap;html=1;boundedLbl=1;backgroundOutline=1;size=15;" parent="1" vertex="1">
          <mxGeometry x="1890" y="810" width="170" height="240" as="geometry" />
        </mxCell>
        <mxCell id="FdN9x6t_w3lRcBCilJA2-80" style="edgeStyle=orthogonalEdgeStyle;rounded=0;orthogonalLoop=1;jettySize=auto;html=1;exitX=1;exitY=0.5;exitDx=0;exitDy=0;entryX=0;entryY=0.5;entryDx=0;entryDy=0;entryPerimeter=0;" parent="1" source="FdN9x6t_w3lRcBCilJA2-54" target="FdN9x6t_w3lRcBCilJA2-79" edge="1">
          <mxGeometry relative="1" as="geometry">
            <mxPoint x="1880" y="920" as="targetPoint" />
          </mxGeometry>
        </mxCell>
        <mxCell id="FdN9x6t_w3lRcBCilJA2-81" value="&lt;font style=&quot;font-size: 16px;&quot;&gt;Payment&lt;/font&gt;&lt;div&gt;&lt;font style=&quot;font-size: 16px;&quot;&gt;Database&lt;/font&gt;&lt;/div&gt;" style="text;html=1;align=center;verticalAlign=middle;whiteSpace=wrap;rounded=0;" parent="1" vertex="1">
          <mxGeometry x="1945" y="910" width="60" height="30" as="geometry" />
        </mxCell>
        <mxCell id="FdN9x6t_w3lRcBCilJA2-82" value="Request-&amp;gt;&amp;gt;" style="text;html=1;align=center;verticalAlign=middle;whiteSpace=wrap;rounded=0;" parent="1" vertex="1">
          <mxGeometry x="490" y="320" width="150" height="30" as="geometry" />
        </mxCell>
        <mxCell id="FdN9x6t_w3lRcBCilJA2-85" value="&amp;lt;&amp;lt;--Response" style="text;html=1;align=center;verticalAlign=middle;whiteSpace=wrap;rounded=0;" parent="1" vertex="1">
          <mxGeometry x="449" y="419" width="160" height="30" as="geometry" />
        </mxCell>
        <mxCell id="FdN9x6t_w3lRcBCilJA2-90" value="Payment Details --&amp;gt;&amp;gt;" style="text;html=1;align=center;verticalAlign=middle;whiteSpace=wrap;rounded=0;" parent="1" vertex="1">
          <mxGeometry x="1620" y="880" width="230" height="30" as="geometry" />
        </mxCell>
        <mxCell id="FdN9x6t_w3lRcBCilJA2-91" value="" style="shape=cylinder3;whiteSpace=wrap;html=1;boundedLbl=1;backgroundOutline=1;size=15;" parent="1" vertex="1">
          <mxGeometry x="1885" y="1180" width="185" height="210" as="geometry" />
        </mxCell>
        <mxCell id="FdN9x6t_w3lRcBCilJA2-92" style="edgeStyle=orthogonalEdgeStyle;rounded=0;orthogonalLoop=1;jettySize=auto;html=1;exitX=1;exitY=0.5;exitDx=0;exitDy=0;entryX=0;entryY=0.5;entryDx=0;entryDy=0;entryPerimeter=0;" parent="1" source="FdN9x6t_w3lRcBCilJA2-59" target="FdN9x6t_w3lRcBCilJA2-91" edge="1">
          <mxGeometry relative="1" as="geometry" />
        </mxCell>
        <mxCell id="FdN9x6t_w3lRcBCilJA2-93" value="Analytical Data" style="text;html=1;align=center;verticalAlign=middle;whiteSpace=wrap;rounded=0;" parent="1" vertex="1">
          <mxGeometry x="1640" y="1327.5" width="200" height="30" as="geometry" />
        </mxCell>
        <mxCell id="FdN9x6t_w3lRcBCilJA2-95" value="&amp;lt;&amp;lt;-- Response" style="text;html=1;align=center;verticalAlign=middle;whiteSpace=wrap;rounded=0;" parent="1" vertex="1">
          <mxGeometry x="960" y="330" width="270" height="30" as="geometry" />
        </mxCell>
        <mxCell id="FdN9x6t_w3lRcBCilJA2-96" style="edgeStyle=orthogonalEdgeStyle;rounded=0;orthogonalLoop=1;jettySize=auto;html=1;exitX=1;exitY=0.5;exitDx=0;exitDy=0;entryX=-0.006;entryY=0.11;entryDx=0;entryDy=0;entryPerimeter=0;" parent="1" source="FdN9x6t_w3lRcBCilJA2-23" target="FdN9x6t_w3lRcBCilJA2-39" edge="1">
          <mxGeometry relative="1" as="geometry" />
        </mxCell>
        <mxCell id="FdN9x6t_w3lRcBCilJA2-98" style="edgeStyle=orthogonalEdgeStyle;rounded=0;orthogonalLoop=1;jettySize=auto;html=1;exitX=0;exitY=0.25;exitDx=0;exitDy=0;entryX=1.002;entryY=0.884;entryDx=0;entryDy=0;entryPerimeter=0;" parent="1" source="FdN9x6t_w3lRcBCilJA2-39" target="FdN9x6t_w3lRcBCilJA2-23" edge="1">
          <mxGeometry relative="1" as="geometry" />
        </mxCell>
        <mxCell id="FdN9x6t_w3lRcBCilJA2-99" value="Message --&amp;gt;&amp;gt;" style="text;html=1;align=center;verticalAlign=middle;whiteSpace=wrap;rounded=0;" parent="1" vertex="1">
          <mxGeometry x="897.5" y="389" width="150" height="30" as="geometry" />
        </mxCell>
        <mxCell id="FdN9x6t_w3lRcBCilJA2-101" value="&amp;lt;&amp;lt;-- Response" style="text;html=1;align=center;verticalAlign=middle;whiteSpace=wrap;rounded=0;" parent="1" vertex="1">
          <mxGeometry x="940" y="431" width="100" height="30" as="geometry" />
        </mxCell>
        <mxCell id="FdN9x6t_w3lRcBCilJA2-102" value="Payment Status" style="text;html=1;align=center;verticalAlign=middle;whiteSpace=wrap;rounded=0;" parent="1" vertex="1">
          <mxGeometry x="910" y="560" width="100" height="30" as="geometry" />
        </mxCell>
        <mxCell id="FdN9x6t_w3lRcBCilJA2-106" value="Payment Details --&amp;gt;&amp;gt;" style="text;html=1;align=center;verticalAlign=middle;whiteSpace=wrap;rounded=0;" parent="1" vertex="1">
          <mxGeometry x="920" y="500" width="140" height="30" as="geometry" />
        </mxCell>
        <mxCell id="FdN9x6t_w3lRcBCilJA2-107" value="&lt;font style=&quot;font-size: 16px;&quot;&gt;Analytical&amp;nbsp;&lt;/font&gt;&lt;div&gt;&lt;font style=&quot;font-size: 16px;&quot;&gt;Database&lt;/font&gt;&lt;/div&gt;" style="text;html=1;align=center;verticalAlign=middle;whiteSpace=wrap;rounded=0;" parent="1" vertex="1">
          <mxGeometry x="1945" y="1270" width="60" height="30" as="geometry" />
        </mxCell>
        <mxCell id="HbiKc5k_0NSxNCVNac7z-20" style="edgeStyle=orthogonalEdgeStyle;rounded=0;orthogonalLoop=1;jettySize=auto;html=1;exitX=1;exitY=0.5;exitDx=0;exitDy=0;entryX=0;entryY=0.5;entryDx=0;entryDy=0;" edge="1" parent="1" source="HbiKc5k_0NSxNCVNac7z-12" target="FdN9x6t_w3lRcBCilJA2-39">
          <mxGeometry relative="1" as="geometry">
            <Array as="points">
              <mxPoint x="1160" y="686" />
              <mxPoint x="1160" y="530" />
            </Array>
          </mxGeometry>
        </mxCell>
        <mxCell id="HbiKc5k_0NSxNCVNac7z-12" value="" style="whiteSpace=wrap;html=1;aspect=fixed;" vertex="1" parent="1">
          <mxGeometry x="800" y="638.75" width="95" height="95" as="geometry" />
        </mxCell>
        <mxCell id="HbiKc5k_0NSxNCVNac7z-13" value="Voice Changer" style="text;html=1;align=center;verticalAlign=middle;whiteSpace=wrap;rounded=0;" vertex="1" parent="1">
          <mxGeometry x="817.5" y="671.25" width="60" height="30" as="geometry" />
        </mxCell>
        <mxCell id="HbiKc5k_0NSxNCVNac7z-16" value="" style="whiteSpace=wrap;html=1;aspect=fixed;" vertex="1" parent="1">
          <mxGeometry x="800" y="760" width="100" height="100" as="geometry" />
        </mxCell>
        <mxCell id="HbiKc5k_0NSxNCVNac7z-17" value="Voice Cloning" style="text;html=1;align=center;verticalAlign=middle;whiteSpace=wrap;rounded=0;" vertex="1" parent="1">
          <mxGeometry x="816.25" y="795" width="60" height="30" as="geometry" />
        </mxCell>
        <mxCell id="HbiKc5k_0NSxNCVNac7z-19" value="Payment" style="text;html=1;align=center;verticalAlign=middle;whiteSpace=wrap;rounded=0;" vertex="1" parent="1">
          <mxGeometry x="820" y="541.25" width="60" height="30" as="geometry" />
        </mxCell>
        <mxCell id="HbiKc5k_0NSxNCVNac7z-21" value="Audio Message --&amp;gt;&amp;gt;" style="text;html=1;align=center;verticalAlign=middle;whiteSpace=wrap;rounded=0;" vertex="1" parent="1">
          <mxGeometry x="1165" y="541.25" width="135" height="30" as="geometry" />
        </mxCell>
        <mxCell id="HbiKc5k_0NSxNCVNac7z-23" value="&amp;lt;&amp;lt;--Response" style="text;html=1;align=center;verticalAlign=middle;whiteSpace=wrap;rounded=0;" vertex="1" parent="1">
          <mxGeometry x="1200" y="599.75" width="80" height="30" as="geometry" />
        </mxCell>
        <mxCell id="HbiKc5k_0NSxNCVNac7z-24" style="edgeStyle=orthogonalEdgeStyle;rounded=0;orthogonalLoop=1;jettySize=auto;html=1;exitX=1;exitY=0.25;exitDx=0;exitDy=0;entryX=0.001;entryY=0.849;entryDx=0;entryDy=0;entryPerimeter=0;" edge="1" parent="1" source="HbiKc5k_0NSxNCVNac7z-16" target="FdN9x6t_w3lRcBCilJA2-39">
          <mxGeometry relative="1" as="geometry">
            <Array as="points">
              <mxPoint x="1010" y="785" />
              <mxPoint x="1010" y="720" />
              <mxPoint x="1210" y="720" />
              <mxPoint x="1210" y="670" />
            </Array>
          </mxGeometry>
        </mxCell>
        <mxCell id="HbiKc5k_0NSxNCVNac7z-25" value="Requested voice --&amp;gt;&amp;gt;" style="text;html=1;align=center;verticalAlign=middle;whiteSpace=wrap;rounded=0;" vertex="1" parent="1">
          <mxGeometry x="1110" y="720" width="130" height="30" as="geometry" />
        </mxCell>
        <mxCell id="HbiKc5k_0NSxNCVNac7z-27" value="&amp;lt;&amp;lt;-- Response" style="text;html=1;align=center;verticalAlign=middle;whiteSpace=wrap;rounded=0;" vertex="1" parent="1">
          <mxGeometry x="1130" y="790" width="110" height="30" as="geometry" />
        </mxCell>
        <mxCell id="HbiKc5k_0NSxNCVNac7z-28" value="Analytical Data" style="text;html=1;align=center;verticalAlign=middle;whiteSpace=wrap;rounded=0;" vertex="1" parent="1">
          <mxGeometry x="1060" y="1327.5" width="200" height="30" as="geometry" />
        </mxCell>
      </root>
    </mxGraphModel>
  </diagram>
</mxfile>
